<svg role="img" width="108" height="100" viewBox="0 0 108 100" fill="none" xmlns="http://www.w3.org/2000/svg"><title>A buyer searching for Gigs.</title><path d="M65.0631 11.043C67.746 13.6545 67.8054 17.9479 65.1957 20.6327C62.586 23.3174 58.2954 23.3768 55.6124 20.7654C52.9295 18.1539 52.8702 13.8605 55.4799 11.1757C58.0896 8.49098 62.3801 8.43158 65.0631 11.043Z" stroke="#222325" stroke-width="1.01786"></path><path d="M80.2559 46.3438C79.0128 43.603 75.0942 41.5026 68.9903 40.4651C62.8864 39.4276 62.4986 32.2433 65.3927 29.4886" stroke="#222325" stroke-width="1.01786" stroke-miterlimit="10" stroke-dasharray="7.11 7.11"></path><path d="M30.7567 10.0796C32.1781 7.2451 35.5422 1.38962 41.4231 1.98822C47.304 2.58681 49.543 8.27677 49.543 8.27677" stroke="#222325" stroke-width="1.01786" stroke-miterlimit="10" stroke-dasharray="7.11 7.11"></path><path d="M49.1367 76.8125C49.4471 78.7736 49.5909 81.5681 49.4385 85.8182L49.3377 95.284C48.0803 94.1032 47.0745 92.6801 46.3808 91.1003C45.6871 89.5205 45.3197 87.8167 45.301 86.0912C45.2822 84.3657 45.6124 82.6543 46.2715 81.0597C46.9307 79.4652 47.9053 78.0205 49.1367 76.8125Z" fill="#1DBF73" stroke="#1DBF73" stroke-width="1.01786" stroke-miterlimit="10"></path><path d="M66.454 76.2343C67.9102 77.4857 69.0665 79.0487 69.8373 80.8078C70.608 82.5669 70.9736 84.4769 70.9067 86.3965C70.8399 88.3161 70.3424 90.196 69.4512 91.8972C68.56 93.5983 67.2978 95.077 65.7581 96.2239C65.7645 96.1763 66.107 84.7037 66.454 76.2343Z" fill="#1DBF73" stroke="#1DBF73" stroke-width="1.01786" stroke-miterlimit="10"></path><path d="M31.0226 36.7517C32.6952 36.6846 34.3554 37.0654 35.8317 37.8549C37.308 38.6444 38.547 39.814 39.4207 41.2428C40.2943 42.6716 40.771 44.3079 40.8015 45.9826C40.8319 47.6574 40.4151 49.3099 39.594 50.7696L48.8805 59.3507L46.8796 61.5199L37.7566 53.0863C36.6416 54.1126 35.2954 54.8542 33.8324 55.2481C32.3695 55.642 30.8333 55.6765 29.3542 55.3488C27.8751 55.021 26.4969 54.3406 25.337 53.3654C24.177 52.3903 23.2696 51.1493 22.6919 49.7478C22.1142 48.3464 21.8832 46.8261 22.0187 45.3162C22.1542 43.8063 22.6521 42.3515 23.4701 41.0755C24.288 39.7995 25.4018 38.7401 26.7167 37.9873C28.0317 37.2345 29.5088 36.8106 31.0226 36.7517ZM31.6538 52.6188C32.9302 52.5684 34.1631 52.1403 35.1964 51.3887C36.2297 50.6371 37.017 49.5958 37.4588 48.3964C37.9007 47.1971 37.9771 45.8935 37.6786 44.6506C37.38 43.4078 36.7199 42.2814 35.7816 41.414C34.8433 40.5466 33.669 39.9771 32.4072 39.7776C31.1454 39.578 29.8529 39.7574 28.693 40.293C27.5331 40.8286 26.558 41.6963 25.891 42.7865C25.224 43.8767 24.8951 45.1403 24.9458 46.4176C25.0138 48.13 25.7586 49.7452 27.0165 50.9082C28.2745 52.0711 29.9425 52.6864 31.6538 52.6188Z" fill="#222325"></path><path d="M64.1101 65.839C64.1101 65.839 64.541 54.3944 64.4096 52.2976C64.2693 50.0857 63.6797 49.7173 62.8953 49.739C62.2072 49.7501 61.4721 50.9954 61.1712 53.5711C60.992 55.1519 60.9324 56.7439 60.9926 58.3337" stroke="#222325" stroke-width="1.01786" stroke-miterlimit="10"></path><path d="M61.2762 65.5959C61.2762 65.5959 61.8998 57.3719 59.4393 53.0461C57.3214 49.3238 55.9197 48.0067 55.0598 48.2875C54.2883 48.5077 53.4967 49.8972 55.2158 52.7779C57.1258 56.0108 56.9649 58.2052 56.9649 58.2052" stroke="#222325" stroke-width="1.01786" stroke-miterlimit="10"></path><path d="M58.8973 65.4089C58.8973 65.4089 57.9403 56.9176 53.7916 54.324C49.3115 51.5217 45.6566 52.1662 44.6752 53.3572C43.6937 54.5482 45.3375 55.7756 46.6711 55.7788C48.0048 55.7821 51.3204 56.4694 52.8402 58.5327C54.1392 60.2906 54.8533 63.5357 52.6981 65.4398C50.543 67.3438 47.6077 65.6727 46.3778 63.792C45.393 62.3109 45.0556 59.8549 43.7381 58.893C42.4205 57.931 41.2485 57.8882 41.6217 61.7191C41.9949 65.55 43.7317 67.5417 46.084 70.7418C48.0276 73.363 49.9058 73.6857 49.471 85.8119L49.3709 95.2823C51.4137 97.4268 54.2124 98.6886 57.171 98.7992C62.7317 99.0934 65.7923 96.225 65.7923 96.225C65.7923 96.225 66.5947 69.721 66.9726 67.4549C67.3504 65.1888 69.7065 58.6632 68.6197 57.716C67.5329 56.7688 66.5803 58.4077 65.818 59.9231C65.0557 61.4386 64.2584 63.1461 64.2584 63.1461" stroke="#222325" stroke-width="1.01786" stroke-miterlimit="10"></path><path d="M66.2304 82.1798L49.4043 81.5066L49.3382 95.2861C49.3382 95.2861 52.6318 98.4257 56.4394 98.7458C59.7396 98.9698 63.0201 98.0839 65.7596 96.2287L66.2304 82.1798Z" fill="#222325"></path><path d="M84.5464 69.9506L84.0798 69.7474L83.8344 70.312L84.4349 70.4472L100.599 74.0877C101.8 74.3583 102.989 73.5924 103.24 72.3868L105.12 63.3594L105.222 62.8689L104.733 62.7587C102.596 62.2772 101.015 62.2866 99.7689 62.5569C98.5192 62.8279 97.6451 63.3533 96.9272 63.8329C96.8201 63.9044 96.7183 63.9734 96.6208 64.0395C96.0413 64.4322 95.6111 64.7237 95.1049 64.8501C94.5639 64.9852 93.8763 64.9351 92.7783 64.3511C91.474 63.6575 90.2369 63.6647 89.1383 64.0802C88.0617 64.4873 87.1434 65.2754 86.4088 66.1057C85.6704 66.9404 85.0898 67.8496 84.6954 68.5448C84.4975 68.8936 84.3448 69.1914 84.2412 69.4032C84.1893 69.5091 84.1496 69.5936 84.1226 69.6524C84.109 69.6818 84.0987 69.7048 84.0915 69.7208L84.0832 69.7395L84.0809 69.7449L84.0802 69.7465L84.0799 69.747C84.0798 69.7472 84.0798 69.7474 84.5464 69.9506Z" fill="white" stroke="#222325" stroke-width="1.01786"></path><path d="M104.744 54.2964L87.1567 50.2972C85.7897 49.9863 84.4298 50.8433 84.1192 52.2111L80.7241 67.1618C80.4135 68.5296 81.2698 69.8905 82.6367 70.2013L100.224 74.2005C101.591 74.5113 102.951 73.6545 103.261 72.2866L106.657 57.336C106.967 55.9681 106.111 54.6072 104.744 54.2964Z" stroke="#222325" stroke-width="1.01786" stroke-miterlimit="10"></path><path d="M88.6106 59.5006C90.1154 59.8397 91.61 58.894 91.9489 57.3882C92.2878 55.8824 91.3427 54.3868 89.8379 54.0477C88.3331 53.7085 86.8385 54.6543 86.4996 56.1601C86.1607 57.6659 87.1058 59.1615 88.6106 59.5006Z" fill="#1DBF73"></path><path d="M21.8898 9.83179L4.0788 12.6708C2.69447 12.8914 1.75102 14.1933 1.97153 15.5785L4.3817 30.7195C4.60221 32.1047 5.90317 33.0488 7.2875 32.8282L25.0985 29.9892C26.4829 29.7685 27.4263 28.4667 27.2058 27.0814L24.7956 11.9405C24.5751 10.5552 23.2742 9.61114 21.8898 9.83179Z" stroke="#222325" stroke-width="1.01786" stroke-miterlimit="10"></path><path d="M2.00977 16.3242L24.8254 12.647" stroke="#222325" stroke-width="1.01786" stroke-miterlimit="10"></path><path d="M11.7039 18.1867L6.61755 18.9974C6.36494 19.0377 6.19278 19.2752 6.23302 19.528L7.68291 28.6364C7.72314 28.8892 7.96055 29.0614 8.21316 29.0212L13.2995 28.2104C13.5521 28.1702 13.7243 27.9326 13.684 27.6798L12.2341 18.5715C12.1939 18.3187 11.9565 18.1464 11.7039 18.1867Z" fill="#1DBF73"></path><path d="M14.5898 18.2422L22.2239 17.0105" stroke="#222325" stroke-width="1.01786" stroke-miterlimit="10"></path><path d="M15.3613 22.9766L22.9954 21.7448" stroke="#222325" stroke-width="1.01786" stroke-miterlimit="10"></path><path d="M16.0605 27.3867L23.6946 26.155" stroke="#222325" stroke-width="1.01786" stroke-miterlimit="10"></path></svg>