<svg width="110" height="88" viewBox="0 0 110 88" fill="none" xmlns="http://www.w3.org/2000/svg"><path d="M70.1382 84.1137H21.8203L33.6992 29.5951H80.9532L70.1382 84.1137Z" fill="white" stroke="#222325" stroke-width="1.2" stroke-miterlimit="10"></path><path d="M27.3186 27.2129C34.0381 22.8115 39.8971 8.58055 47.0612 13.9225C54.0461 19.1281 37.8604 31.7436 41.4461 40.7259C45.0317 49.7082 57.768 40.7977 54.4548 35.3408C51.1417 29.8839 35.9313 44.0287 48.1728 54.1886C57.6963 62.0867 70.5257 50.9503 65.7998 39.0457" stroke="#222325" stroke-width="1.2" stroke-miterlimit="10"></path><path d="M25.2278 66.9366H73.5448" stroke="#222325" stroke-width="1.2" stroke-miterlimit="10"></path><path d="M34.6294 78.2778C36.53 76.5375 36.8881 73.835 35.4284 72.2415C33.9695 70.6479 31.2452 70.7669 29.3446 72.5071C27.444 74.2473 27.0868 76.9499 28.5457 78.5434C30.0046 80.1369 32.7288 80.018 34.6294 78.2778Z" stroke="#222325" stroke-width="1.2" stroke-miterlimit="10"></path><path d="M40.9944 73.7288H55.1566" stroke="#222325" stroke-width="1.2" stroke-miterlimit="10"></path><path d="M40.4485 76.8288H50.2745" stroke="#222325" stroke-width="1.2" stroke-miterlimit="10"></path><path d="M65.0296 71.6892L65.8312 74.0141C65.8374 74.0162 65.8444 74.0162 65.8515 74.0141L68.3601 74.4349C68.3883 74.4349 68.3927 74.475 68.3601 74.4951L66.1876 76.355C66.1858 76.3655 66.1858 76.3765 66.1876 76.387L66.1313 78.9725C66.1313 79.0005 66.0952 79.0246 66.0715 79.0085L63.9429 77.8341H63.9104L61.3657 79.0085C61.3604 79.0144 61.3533 79.0181 61.3463 79.0188C61.3384 79.0196 61.3313 79.0173 61.3252 79.0126C61.319 79.0078 61.3155 79.0009 61.3146 78.9933C61.3138 78.9858 61.3164 78.9784 61.3208 78.9725L62.1752 76.387C62.1787 76.3767 62.1787 76.3653 62.1752 76.355L60.66 74.5151C60.6565 74.5094 60.6547 74.5031 60.6538 74.4966C60.6538 74.4901 60.6547 74.4836 60.6582 74.4776C60.6609 74.4717 60.6644 74.4665 60.6697 74.4625C60.6749 74.4586 60.6811 74.456 60.6881 74.455L63.3455 74.0341C63.356 74.0372 63.3675 74.0372 63.378 74.0341L64.9812 71.7092C64.9847 71.6611 65.0208 71.6611 65.0296 71.6892Z" fill="#1DBF73"></path><path d="M16.7444 19.7516L3.81984 7.72041L6.89594 4.50308L26.3941 22.6527L27.833 26.7394C27.852 26.7954 27.8555 26.8561 27.8431 26.9146C27.8297 26.9726 27.8012 27.0264 27.7609 27.0701C27.7198 27.1133 27.6677 27.1443 27.611 27.16C27.5535 27.1754 27.4938 27.1747 27.4374 27.1578L23.3179 25.87L16.4692 19.4782" stroke="#222325" stroke-width="1.2" stroke-miterlimit="10"></path></svg>