<svg width="25" height="25" viewBox="0 0 25 25" fill="none" xmlns="http://www.w3.org/2000/svg">
<g clip-path="url(#clip0_107_518)">
<rect width="25" height="25" fill="white"/>
<path d="M24.9999 2.06677V2.68056L22.6527 9.42972L18.886 7.96748L21.1632 1.454C21.9155 -0.217279 24.0874 -0.68454 24.8055 1.32438L24.9999 2.06677Z" fill="black"/>
<path d="M2.33308 18.9225C2.7362 19.3329 3.44693 18.9599 3.84712 18.7253C4.79982 18.1668 5.69178 17.2579 6.83944 17.1508C8.97555 16.9515 8.21779 19.003 7.98807 20.3714C8.88101 19.6593 10.3363 19.6291 10.7815 20.8746C11.4036 20.9069 11.9248 20.9868 12.4513 21.3526C12.7163 21.537 13.5745 22.2902 13.6984 22.5535C14.0687 23.3431 13.4844 24.1623 12.6605 24.0481C12.0482 23.963 11.6314 23.0167 11.0387 22.9327C10.8413 22.9045 10.6307 22.9398 10.421 22.9137C9.85282 22.844 9.38406 22.574 9.08821 22.0612C8.24277 22.6581 7.28027 23.0182 6.49607 22.1104C5.85391 21.3669 5.93522 20.5856 6.0807 19.6557C5.19168 20.1932 4.27963 21.0196 3.21525 21.1323C-1.9509 21.6784 0.333625 12.3968 1.70464 9.78635C2.73865 7.81842 5.03934 5.86126 7.22003 7.24101C8.38041 7.9752 9.24985 10.064 9.26258 11.4489C9.27385 12.6955 7.63197 12.8922 7.33611 11.7722C7.18182 11.1886 7.20239 10.6886 6.95356 10.0758C6.34472 8.57465 5.47332 8.4814 4.34379 9.53018C3.26962 10.5272 2.71808 12.3988 2.38892 13.8257C2.13715 14.9175 1.51458 18.09 2.33259 18.922L2.33308 18.9225Z" fill="black"/>
<path d="M22.0136 10.9683L21.9842 11.2096C20.8542 14.0301 20.0719 17.1267 18.9262 19.9247C18.4437 21.1031 17.3652 22.7221 16.4453 23.5675C16.3125 23.6899 16.0108 23.8421 15.9319 23.9512C15.7767 24.1664 15.7434 24.6511 15.5656 24.8463C15.4034 25.0246 15.1526 25.0476 14.9596 24.9144C14.4973 24.5952 15.0326 23.9901 15.0287 23.6166C15.0272 23.4968 14.9376 23.3605 14.9121 23.2262C14.6143 21.6718 14.8137 19.9283 15.1712 18.4009L18.3252 9.53784L22.0126 10.9678L22.0136 10.9683Z" fill="black"/>
<path d="M20.2894 0.857659C20.5094 1.0877 20.6098 1.44327 20.529 1.76246L18.1151 8.59462C17.7433 9.60804 16.3929 9.42872 16.3253 8.33076C17.0169 5.89813 17.9902 3.53416 18.8053 1.13586C19.0654 0.535904 19.8471 0.395521 20.2894 0.858171V0.857659Z" fill="black"/>
</g>
<defs>
<clipPath id="clip0_107_518">
<rect width="25" height="25" fill="white"/>
</clipPath>
</defs>
</svg>
