<svg width="30" height="30" viewBox="0 0 30 30" fill="none" xmlns="http://www.w3.org/2000/svg">
<path d="M5 23.375V12.125C5 11.7292 5.08854 11.3542 5.26562 11C5.44271 10.6458 5.6875 10.3542 6 10.125L13.5 4.5C13.9375 4.16667 14.4375 4 15 4C15.5625 4 16.0625 4.16667 16.5 4.5L24 10.125C24.3125 10.3542 24.5573 10.6458 24.7344 11C24.9115 11.3542 25 11.7292 25 12.125V23.375C25 24.0625 24.7552 24.651 24.2656 25.1406C23.776 25.6302 23.1875 25.875 22.5 25.875H18.75C18.3958 25.875 18.099 25.7552 17.8594 25.5156C17.6198 25.276 17.5 24.9792 17.5 24.625V18.375C17.5 18.0208 17.3802 17.724 17.1406 17.4844C16.901 17.2448 16.6042 17.125 16.25 17.125H13.75C13.3958 17.125 13.099 17.2448 12.8594 17.4844C12.6198 17.724 12.5 18.0208 12.5 18.375V24.625C12.5 24.9792 12.3802 25.276 12.1406 25.5156C11.901 25.7552 11.6042 25.875 11.25 25.875H7.5C6.8125 25.875 6.22396 25.6302 5.73438 25.1406C5.24479 24.651 5 24.0625 5 23.375Z" fill="white"/>
</svg>
